<svg xmlns="http://www.w3.org/2000/svg" xmlns:xlink="http://www.w3.org/1999/xlink" width="60" zoomAndPan="magnify" viewBox="0 0 45 33.749998" height="45" preserveAspectRatio="xMidYMid meet" version="1.0"><defs><g/><clipPath id="3d6c428b74"><path d="M 25 6 L 44.832031 6 L 44.832031 28 L 25 28 Z M 25 6 " clip-rule="nonzero"/></clipPath></defs><g fill="#ff3131" fill-opacity="1"><g transform="translate(-0.111353, 27.001905)"><g><path d="M 12.09375 -20.359375 C 15.539062 -20.359375 18.203125 -19.472656 20.078125 -17.703125 C 21.960938 -15.941406 22.90625 -13.375 22.90625 -10 C 22.90625 -6.625 21.960938 -4.054688 20.078125 -2.296875 C 18.203125 -0.535156 15.539062 0.34375 12.09375 0.34375 C 8.644531 0.34375 5.984375 -0.53125 4.109375 -2.28125 C 2.242188 -4.039062 1.3125 -6.613281 1.3125 -10 C 1.3125 -13.394531 2.242188 -15.96875 4.109375 -17.71875 C 5.984375 -19.476562 8.644531 -20.359375 12.09375 -20.359375 Z M 12.09375 -15.5625 C 10.71875 -15.5625 9.671875 -15.144531 8.953125 -14.3125 C 8.234375 -13.476562 7.875 -12.351562 7.875 -10.9375 L 7.875 -9.078125 C 7.875 -7.660156 8.234375 -6.535156 8.953125 -5.703125 C 9.671875 -4.867188 10.71875 -4.453125 12.09375 -4.453125 C 13.46875 -4.453125 14.519531 -4.867188 15.25 -5.703125 C 15.976562 -6.535156 16.34375 -7.660156 16.34375 -9.078125 L 16.34375 -10.9375 C 16.34375 -12.351562 15.976562 -13.476562 15.25 -14.3125 C 14.519531 -15.144531 13.46875 -15.5625 12.09375 -15.5625 Z M 12.09375 -15.5625 "/></g></g></g><g clip-path="url(#3d6c428b74)"><g fill="#ff3131" fill-opacity="1"><g transform="translate(24.105474, 27.001905)"><g><path d="M 10.5625 -20.359375 C 13.113281 -20.359375 15.210938 -19.835938 16.859375 -18.796875 C 18.515625 -17.765625 19.359375 -16.226562 19.390625 -14.1875 L 19.390625 -13.84375 L 13.375 -13.84375 L 13.375 -13.953125 C 13.375 -14.535156 13.160156 -15.019531 12.734375 -15.40625 C 12.304688 -15.800781 11.65625 -16 10.78125 -16 C 9.9375 -16 9.285156 -15.867188 8.828125 -15.609375 C 8.367188 -15.359375 8.140625 -15.050781 8.140625 -14.6875 C 8.140625 -14.164062 8.445312 -13.773438 9.0625 -13.515625 C 9.6875 -13.265625 10.6875 -13.003906 12.0625 -12.734375 C 13.675781 -12.398438 15 -12.054688 16.03125 -11.703125 C 17.070312 -11.347656 17.976562 -10.757812 18.75 -9.9375 C 19.53125 -9.125 19.929688 -8.019531 19.953125 -6.625 C 19.953125 -4.257812 19.148438 -2.503906 17.546875 -1.359375 C 15.953125 -0.222656 13.816406 0.34375 11.140625 0.34375 C 8.015625 0.34375 5.582031 -0.175781 3.84375 -1.21875 C 2.113281 -2.269531 1.25 -4.125 1.25 -6.78125 L 7.328125 -6.78125 C 7.328125 -5.769531 7.585938 -5.09375 8.109375 -4.75 C 8.628906 -4.414062 9.445312 -4.25 10.5625 -4.25 C 11.375 -4.25 12.046875 -4.332031 12.578125 -4.5 C 13.109375 -4.675781 13.375 -5.035156 13.375 -5.578125 C 13.375 -6.066406 13.078125 -6.429688 12.484375 -6.671875 C 11.898438 -6.910156 10.9375 -7.164062 9.59375 -7.4375 C 7.96875 -7.789062 6.617188 -8.15625 5.546875 -8.53125 C 4.484375 -8.90625 3.550781 -9.53125 2.75 -10.40625 C 1.957031 -11.28125 1.5625 -12.460938 1.5625 -13.953125 C 1.5625 -16.148438 2.410156 -17.765625 4.109375 -18.796875 C 5.804688 -19.835938 7.957031 -20.359375 10.5625 -20.359375 Z M 10.5625 -20.359375 "/></g></g></g></g></svg>