<svg xmlns="http://www.w3.org/2000/svg" xmlns:xlink="http://www.w3.org/1999/xlink" width="60" zoomAndPan="magnify" viewBox="0 0 45 33.749998" height="45" preserveAspectRatio="xMidYMid meet" version="1.0"><defs><g/><clipPath id="76c20c6375"><path d="M 18 5 L 44.832031 5 L 44.832031 24 L 18 24 Z M 18 5 " clip-rule="nonzero"/></clipPath></defs><g fill="#ff3131" fill-opacity="1"><g transform="translate(0.744163, 23.446458)"><g><path d="M 15.484375 -6.234375 C 15.484375 -3.992188 14.84375 -2.34375 13.5625 -1.28125 C 12.28125 -0.21875 10.441406 0.3125 8.046875 0.3125 C 5.640625 0.3125 3.796875 -0.21875 2.515625 -1.28125 C 1.234375 -2.34375 0.59375 -3.992188 0.59375 -6.234375 L 0.59375 -6.46875 L 6 -6.46875 L 6 -6.265625 C 6 -5.453125 6.148438 -4.867188 6.453125 -4.515625 C 6.765625 -4.171875 7.234375 -4 7.859375 -4 C 8.484375 -4 8.945312 -4.171875 9.25 -4.515625 C 9.5625 -4.867188 9.71875 -5.453125 9.71875 -6.265625 L 9.71875 -17.96875 L 15.484375 -17.96875 Z M 15.484375 -6.234375 "/></g></g></g><g clip-path="url(#76c20c6375)"><g fill="#ff3131" fill-opacity="1"><g transform="translate(18.147416, 23.446458)"><g><path d="M 15.4375 0 L 13.109375 -10.9375 L 13 -10.9375 L 10.671875 0 L 4.328125 0 L 0.125 -17.96875 L 6.140625 -17.96875 L 8.203125 -7.78125 L 8.296875 -7.78125 L 10.34375 -17.96875 L 16.03125 -17.96875 L 18.203125 -7.78125 L 18.296875 -7.78125 L 20.234375 -17.96875 L 25.984375 -17.96875 L 21.78125 0 Z M 15.4375 0 "/></g></g></g></g></svg>