<svg xmlns="http://www.w3.org/2000/svg" xmlns:xlink="http://www.w3.org/1999/xlink" width="64" zoomAndPan="magnify" viewBox="0 0 48 30.000001" height="40" preserveAspectRatio="xMidYMid meet" version="1.0"><defs><g/></defs><g fill="#ff3131" fill-opacity="1"><g transform="translate(2.000213, 23.883674)"><g><path d="M 11.765625 -19.8125 C 15.128906 -19.8125 17.722656 -18.953125 19.546875 -17.234375 C 21.378906 -15.515625 22.296875 -13.015625 22.296875 -9.734375 C 22.296875 -6.453125 21.378906 -3.953125 19.546875 -2.234375 C 17.722656 -0.515625 15.128906 0.34375 11.765625 0.34375 C 8.410156 0.34375 5.820312 -0.507812 4 -2.21875 C 2.175781 -3.925781 1.265625 -6.429688 1.265625 -9.734375 C 1.265625 -13.035156 2.175781 -15.539062 4 -17.25 C 5.820312 -18.957031 8.410156 -19.8125 11.765625 -19.8125 Z M 11.765625 -15.140625 C 10.429688 -15.140625 9.414062 -14.734375 8.71875 -13.921875 C 8.019531 -13.109375 7.671875 -12.015625 7.671875 -10.640625 L 7.671875 -8.828125 C 7.671875 -7.453125 8.019531 -6.359375 8.71875 -5.546875 C 9.414062 -4.734375 10.429688 -4.328125 11.765625 -4.328125 C 13.109375 -4.328125 14.132812 -4.734375 14.84375 -5.546875 C 15.550781 -6.359375 15.90625 -7.453125 15.90625 -8.828125 L 15.90625 -10.640625 C 15.90625 -12.015625 15.550781 -13.109375 14.84375 -13.921875 C 14.132812 -14.734375 13.109375 -15.140625 11.765625 -15.140625 Z M 11.765625 -15.140625 "/></g></g></g><g fill="#ff3131" fill-opacity="1"><g transform="translate(25.570184, 23.883674)"><g><path d="M 10.265625 -19.8125 C 12.753906 -19.8125 14.800781 -19.304688 16.40625 -18.296875 C 18.007812 -17.285156 18.832031 -15.789062 18.875 -13.8125 L 18.875 -13.46875 L 13.015625 -13.46875 L 13.015625 -13.578125 C 13.015625 -14.148438 12.804688 -14.625 12.390625 -15 C 11.972656 -15.375 11.34375 -15.5625 10.5 -15.5625 C 9.664062 -15.5625 9.023438 -15.4375 8.578125 -15.1875 C 8.140625 -14.945312 7.921875 -14.648438 7.921875 -14.296875 C 7.921875 -13.785156 8.222656 -13.40625 8.828125 -13.15625 C 9.429688 -12.914062 10.40625 -12.660156 11.75 -12.390625 C 13.3125 -12.066406 14.597656 -11.726562 15.609375 -11.375 C 16.617188 -11.03125 17.5 -10.460938 18.25 -9.671875 C 19.007812 -8.878906 19.394531 -7.804688 19.40625 -6.453125 C 19.40625 -4.148438 18.628906 -2.441406 17.078125 -1.328125 C 15.523438 -0.210938 13.445312 0.34375 10.84375 0.34375 C 7.800781 0.34375 5.4375 -0.164062 3.75 -1.1875 C 2.0625 -2.207031 1.21875 -4.007812 1.21875 -6.59375 L 7.125 -6.59375 C 7.125 -5.613281 7.378906 -4.957031 7.890625 -4.625 C 8.398438 -4.289062 9.191406 -4.125 10.265625 -4.125 C 11.054688 -4.125 11.710938 -4.207031 12.234375 -4.375 C 12.753906 -4.550781 13.015625 -4.90625 13.015625 -5.4375 C 13.015625 -5.90625 12.726562 -6.253906 12.15625 -6.484375 C 11.582031 -6.722656 10.644531 -6.976562 9.34375 -7.25 C 7.757812 -7.582031 6.445312 -7.929688 5.40625 -8.296875 C 4.363281 -8.671875 3.457031 -9.28125 2.6875 -10.125 C 1.914062 -10.976562 1.53125 -12.128906 1.53125 -13.578125 C 1.53125 -15.710938 2.351562 -17.285156 4 -18.296875 C 5.65625 -19.304688 7.742188 -19.8125 10.265625 -19.8125 Z M 10.265625 -19.8125 "/></g></g></g></svg>