<svg xmlns="http://www.w3.org/2000/svg" xmlns:xlink="http://www.w3.org/1999/xlink" width="64" zoomAndPan="magnify" viewBox="0 0 48 30.000001" height="40" preserveAspectRatio="xMidYMid meet" version="1.0"><defs><g/></defs><g fill="#ff3131" fill-opacity="1"><g transform="translate(0.774193, 25.353002)"><g><path d="M 12.203125 -20.546875 C 15.691406 -20.546875 18.382812 -19.65625 20.28125 -17.875 C 22.175781 -16.09375 23.125 -13.5 23.125 -10.09375 C 23.125 -6.6875 22.175781 -4.09375 20.28125 -2.3125 C 18.382812 -0.53125 15.691406 0.359375 12.203125 0.359375 C 8.722656 0.359375 6.039062 -0.523438 4.15625 -2.296875 C 2.269531 -4.066406 1.328125 -6.664062 1.328125 -10.09375 C 1.328125 -13.519531 2.269531 -16.117188 4.15625 -17.890625 C 6.039062 -19.660156 8.722656 -20.546875 12.203125 -20.546875 Z M 12.203125 -15.703125 C 10.816406 -15.703125 9.757812 -15.28125 9.03125 -14.4375 C 8.3125 -13.59375 7.953125 -12.457031 7.953125 -11.03125 L 7.953125 -9.15625 C 7.953125 -7.726562 8.3125 -6.59375 9.03125 -5.75 C 9.757812 -4.90625 10.816406 -4.484375 12.203125 -4.484375 C 13.597656 -4.484375 14.660156 -4.90625 15.390625 -5.75 C 16.117188 -6.59375 16.484375 -7.726562 16.484375 -9.15625 L 16.484375 -11.03125 C 16.484375 -12.457031 16.117188 -13.59375 15.390625 -14.4375 C 14.660156 -15.28125 13.597656 -15.703125 12.203125 -15.703125 Z M 12.203125 -15.703125 "/></g></g></g><g fill="#ff3131" fill-opacity="1"><g transform="translate(25.222781, 25.353002)"><g><path d="M 10.65625 -20.546875 C 13.238281 -20.546875 15.359375 -20.019531 17.015625 -18.96875 C 18.679688 -17.925781 19.535156 -16.375 19.578125 -14.3125 L 19.578125 -13.96875 L 13.5 -13.96875 L 13.5 -14.078125 C 13.5 -14.671875 13.28125 -15.160156 12.84375 -15.546875 C 12.414062 -15.941406 11.765625 -16.140625 10.890625 -16.140625 C 10.023438 -16.140625 9.363281 -16.007812 8.90625 -15.75 C 8.445312 -15.5 8.21875 -15.1875 8.21875 -14.8125 C 8.21875 -14.289062 8.53125 -13.898438 9.15625 -13.640625 C 9.78125 -13.390625 10.785156 -13.128906 12.171875 -12.859375 C 13.796875 -12.523438 15.128906 -12.175781 16.171875 -11.8125 C 17.222656 -11.445312 18.140625 -10.851562 18.921875 -10.03125 C 19.703125 -9.207031 20.101562 -8.09375 20.125 -6.6875 C 20.125 -4.300781 19.316406 -2.53125 17.703125 -1.375 C 16.085938 -0.21875 13.929688 0.359375 11.234375 0.359375 C 8.085938 0.359375 5.640625 -0.164062 3.890625 -1.21875 C 2.140625 -2.28125 1.265625 -4.15625 1.265625 -6.84375 L 7.390625 -6.84375 C 7.390625 -5.820312 7.65625 -5.140625 8.1875 -4.796875 C 8.71875 -4.453125 9.539062 -4.28125 10.65625 -4.28125 C 11.476562 -4.28125 12.15625 -4.367188 12.6875 -4.546875 C 13.226562 -4.722656 13.5 -5.085938 13.5 -5.640625 C 13.5 -6.128906 13.195312 -6.492188 12.59375 -6.734375 C 12 -6.972656 11.03125 -7.234375 9.6875 -7.515625 C 8.039062 -7.867188 6.675781 -8.234375 5.59375 -8.609375 C 4.519531 -8.992188 3.582031 -9.625 2.78125 -10.5 C 1.976562 -11.382812 1.578125 -12.578125 1.578125 -14.078125 C 1.578125 -16.296875 2.429688 -17.925781 4.140625 -18.96875 C 5.859375 -20.019531 8.03125 -20.546875 10.65625 -20.546875 Z M 10.65625 -20.546875 "/></g></g></g></svg>