<svg xmlns="http://www.w3.org/2000/svg" xmlns:xlink="http://www.w3.org/1999/xlink" width="500" zoomAndPan="magnify" viewBox="0 0 375 374.999991" height="500" preserveAspectRatio="xMidYMid meet" version="1.0"><defs><g/></defs><rect x="-37.5" width="450" fill="#ffffff" y="-37.499999" height="449.999989" fill-opacity="1"/><rect x="-37.5" width="450" fill="#ffffff" y="-37.499999" height="449.999989" fill-opacity="1"/><g fill="#000000" fill-opacity="1"><g transform="translate(0.0000045, 266.77975)"><g><path d="M 112.671875 -166.09375 C 107.3125 -166.5625 101.9375 -166.328125 96.578125 -165.859375 C 92.140625 -165.390625 87.484375 -164.9375 83.046875 -163.765625 C 78.84375 -162.828125 73.484375 -161.203125 70.6875 -160.265625 C 63.453125 -158.171875 60.1875 -156.0625 53.1875 -153.5 C 44.5625 -150 37.796875 -143.703125 32.1875 -136.703125 C 28.234375 -132.03125 24.734375 -126.671875 21.46875 -121.3125 C 17.03125 -113.609375 14.234375 -105.671875 11.890625 -97.28125 C 10.5 -91.90625 9.796875 -70.21875 11.203125 -65.3125 C 13.0625 -59.015625 17.5 -44.5625 21 -38.953125 C 23.09375 -35.6875 25.1875 -32.1875 28 -29.625 C 32.421875 -25.1875 34.984375 -19.59375 40.59375 -16.328125 C 43.390625 -14.703125 46.1875 -12.828125 48.75 -10.734375 C 52.953125 -7.46875 58.3125 -6.53125 63.21875 -4.203125 C 68.8125 -1.171875 75.34375 -0.9375 81.421875 0.703125 C 87.71875 2.09375 94.25 2.09375 100.546875 3.03125 C 104.28125 3.5 108.015625 3.265625 111.734375 3.265625 C 117.8125 3.265625 120.140625 3.03125 126.671875 1.859375 C 132.5 0.9375 138.5625 0.9375 144.40625 -1.171875 C 149.0625 -3.03125 153.734375 -4.671875 157.9375 -7.234375 C 165.390625 -11.4375 172.625 -16.09375 178 -23.09375 C 182.65625 -28.921875 186.625 -35.21875 189.890625 -41.984375 C 192.453125 -47.59375 194.328125 -53.65625 195.953125 -59.71875 C 198.984375 -70.6875 200.390625 -81.640625 198.984375 -92.375 C 198.984375 -100.078125 196.65625 -106.375 194.796875 -112.90625 C 192.21875 -122.234375 187.09375 -130.171875 180.5625 -137.171875 C 175.421875 -142.765625 169.359375 -147.4375 163.0625 -151.625 C 160.96875 -153.03125 158.859375 -155.359375 156.765625 -156.0625 C 151.171875 -157.9375 146.265625 -161.4375 140.203125 -162.125 C 135.296875 -162.828125 130.40625 -165.15625 125.265625 -165.390625 Z M 103.578125 -142.0625 C 107.078125 -143.234375 115.9375 -141.828125 118.046875 -139.03125 C 121.546875 -134.375 123.40625 -129.46875 125.265625 -123.40625 C 129 -115.234375 127.375 -107.546875 129 -98.671875 C 129.46875 -95.40625 129.46875 -91.90625 129.46875 -88.640625 C 129.46875 -79.3125 129.703125 -70.21875 128.765625 -60.890625 C 127.84375 -51.5625 125.96875 -42.453125 123.40625 -33.59375 C 121.765625 -28.453125 118.5 -24.5 114.078125 -21.6875 C 111.046875 -19.59375 107.3125 -19.828125 103.578125 -21.234375 C 97.046875 -23.328125 93.3125 -28.234375 90.046875 -33.828125 C 85.140625 -42.21875 83.515625 -51.5625 81.640625 -60.890625 C 80.953125 -63.921875 80.953125 -67.421875 80.71875 -70.6875 C 80.25 -75.8125 79.3125 -81.875 80.015625 -87.015625 C 81.1875 -97.75 81.875 -107.3125 85.140625 -117.578125 C 87.015625 -122.9375 88.40625 -128.296875 91.453125 -132.96875 C 93.78125 -136.9375 98.90625 -140.671875 103.578125 -142.0625 Z M 103.578125 -142.0625 "/></g></g></g><g fill="#000000" fill-opacity="1"><g transform="translate(209.954717, 266.77975)"><g><path d="M 68.125 -166.328125 C 58.09375 -165.625 48.984375 -162.59375 40.125 -158.625 C 35.921875 -156.765625 31.953125 -154.671875 28.6875 -151.40625 C 20.0625 -142.765625 15.15625 -132.5 14.46875 -120.140625 C 13.765625 -107.078125 17.5 -94.953125 27.296875 -86.546875 C 34.984375 -79.78125 41.296875 -71.15625 51.5625 -67.1875 C 55.28125 -65.546875 58.546875 -62.75 62.046875 -60.65625 C 68.125 -57.390625 74.1875 -53.65625 80.015625 -49.921875 C 85.609375 -46.1875 91.21875 -42.21875 96.578125 -37.796875 C 100.78125 -34.0625 100.3125 -24.265625 93.78125 -22.625 C 83.984375 -19.828125 74.421875 -19.828125 65.078125 -23.09375 C 59.953125 -23.5625 53.890625 -27.53125 48.515625 -30.328125 C 42.21875 -33.359375 35.6875 -38.71875 31.265625 -44.328125 C 30.09375 -45.71875 28.234375 -46.890625 27.0625 -47.828125 C 23.5625 -48.0625 22.15625 -46.1875 20.765625 -44.5625 C 18.421875 -41.75 16.328125 -38.953125 14.46875 -36.15625 C 13.0625 -34.296875 8.859375 -29.390625 9.5625 -27.765625 C 11.203125 -24.03125 17.03125 -20.0625 20.0625 -17.5 C 30.328125 -8.390625 42.21875 -2.796875 55.28125 0.46875 C 70.921875 4.203125 86.78125 4.203125 102.640625 2.09375 C 116.40625 0.46875 129.234375 -3.734375 140.203125 -12.359375 C 144.171875 -15.390625 147.90625 -18.890625 149.765625 -23.328125 C 152.328125 -30.328125 154.4375 -37.328125 154.4375 -45.25 C 153.96875 -58.78125 149.0625 -69.984375 139.265625 -79.078125 C 132.96875 -85.375 125.03125 -89.578125 118.046875 -95.171875 C 112.4375 -99.375 106.375 -102.640625 100.546875 -106.609375 C 94.25 -110.8125 87.71875 -114.78125 81.421875 -119.203125 C 79.078125 -120.84375 76.984375 -123.171875 75.578125 -125.734375 C 72.078125 -131.796875 74.1875 -137.40625 80.484375 -139.5 C 82.578125 -140.203125 84.453125 -140.671875 86.546875 -140.671875 C 93.078125 -141.140625 99.140625 -140.4375 105.203125 -138.328125 C 112.90625 -135.765625 119.203125 -131.34375 122.46875 -123.640625 C 123.171875 -122.234375 123.640625 -120.609375 125.734375 -119.4375 C 133.4375 -119.671875 141.828125 -118.046875 150 -119.4375 C 150.46875 -122.9375 150 -125.265625 149.0625 -127.84375 C 147.671875 -130.875 145.5625 -133.4375 143.9375 -136.234375 C 136.46875 -148.359375 126.671875 -157.234375 112.90625 -161.65625 C 98.4375 -166.328125 83.515625 -167.5 68.125 -166.328125 Z M 68.125 -166.328125 "/></g></g></g></svg>