<?xml version="1.0" encoding="utf-8"?>
<!-- Generator: Adobe Illustrator 28.2.0, SVG Export Plug-In . SVG Version: 6.00 Build 0)  -->
<svg version="1.1" id="Layer_1" xmlns="http://www.w3.org/2000/svg" xmlns:xlink="http://www.w3.org/1999/xlink" x="0px" y="0px"
	 viewBox="0 0 32 32" style="enable-background:new 0 0 32 32;" xml:space="preserve">
<style type="text/css">
	.st0{fill:#FFFFFF;}
</style>
<rect class="st0" width="32" height="32"/>
<g>
	<path d="M17.25,15.38c0,5.49-3.29,8.79-8.19,8.79c-4.93,0-7.85-3.74-7.85-8.51c0-5,3.22-8.74,8.12-8.74
		C14.45,6.92,17.25,10.75,17.25,15.38z M5.19,15.58c0,3.29,1.53,5.59,4.06,5.59c2.55,0,4.01-2.43,4.01-5.67
		c0-3.02-1.41-5.59-4.01-5.59C6.68,9.91,5.19,12.34,5.19,15.58z"/>
	<path d="M19.84,20.01c0.99,0.52,2.57,1.04,4.18,1.04c1.73,0,2.65-0.72,2.65-1.81c0-1.04-0.79-1.63-2.8-2.33
		c-2.77-0.99-4.6-2.52-4.6-4.95c0-2.85,2.4-5,6.31-5c1.91,0,3.27,0.37,4.26,0.84L29,10.83c-0.64-0.32-1.86-0.79-3.47-0.79
		c-1.63,0-2.43,0.77-2.43,1.61c0,1.06,0.92,1.53,3.09,2.35c2.94,1.09,4.31,2.62,4.31,4.97c0,2.8-2.13,5.17-6.71,5.17
		c-1.91,0-3.79-0.52-4.73-1.04L19.84,20.01z"/>
</g>
</svg>
